<?xml version="1.0" encoding="UTF-8"?>
<svg xmlns="http://www.w3.org/2000/svg" id="Layer_1" data-name="Layer 1" viewBox="0 0 24 24">
  <path d="M17,7c-1.103,0-2,.897-2,2s.897,2,2,2,2-.897,2-2-.897-2-2-2Zm0,3c-.552,0-1-.449-1-1s.448-1,1-1,1,.449,1,1-.448,1-1,1Zm-6-6c-1.103,0-2,.897-2,2s.897,2,2,2,2-.897,2-2-.897-2-2-2Zm0,3c-.552,0-1-.449-1-1s.448-1,1-1,1,.449,1,1-.448,1-1,1Zm-3,3c0-1.103-.897-2-2-2s-2,.897-2,2,.897,2,2,2,2-.897,2-2Zm-3,0c0-.551,.448-1,1-1s1,.449,1,1-.448,1-1,1-1-.449-1-1Zm2,4c-1.103,0-2,.897-2,2s.897,2,2,2,2-.897,2-2-.897-2-2-2Zm0,3c-.552,0-1-.449-1-1s.448-1,1-1,1,.449,1,1-.448,1-1,1Zm16.707-7.68C22.567,4.089,17.994,.262,12.586,.015,8.287-.189,4.407,1.796,1.957,5.401c-.701,1.033-1.219,2.174-1.537,3.39-.975,3.72-.218,7.558,2.076,10.529,2.296,2.975,5.76,4.681,9.517,4.681,.527-.002,1.05-.226,1.431-.613,.363-.368,.561-.84,.557-1.325v-2.865c0-1.679,1.273-3.112,2.838-3.194,.982-.056,1.943,.387,2.546,1.175,.425,.553,1.12,.853,1.806,.808,.704-.046,1.331-.432,1.676-1.032,.124-.216,.24-.442,.345-.68,.895-2.025,1.062-4.366,.497-6.955Zm-1.411,6.551c-.091,.205-.191,.4-.298,.585-.181,.314-.499,.508-.874,.533-.369,.028-.726-.131-.945-.418-.804-1.05-2.078-1.624-3.394-1.566-2.087,.109-3.785,1.99-3.785,4.193v2.87c.002,.221-.094,.441-.269,.618-.196,.199-.46,.314-.731,.315-3.432,0-6.607-1.564-8.713-4.292C1.185,15.985,.492,12.462,1.387,9.045c.29-1.106,.761-2.143,1.397-3.082C4.928,2.809,8.277,1,11.974,1c.188,0,.375,.004,.566,.013,4.956,.227,9.146,3.73,10.19,8.52,.518,2.378,.372,4.511-.435,6.338Z"/>
</svg>
